HIERARCHY
ROOT Hips
{
  OFFSET 55.8217 93.5854 21.8435
  CHANNELS 6 Xposition Yposition Zposition Zrotation Xrotation Yrotation
  JOINT spine
  {
    OFFSET 0 7.4756 0.429885
    CHANNELS 3 Zrotation Xrotation Yrotation
    JOINT spine1
    {
      OFFSET 0 9.92301 0
      CHANNELS 3 Zrotation Xrotation Yrotation
      JOINT spine2
      {
        OFFSET 0 9.50804 0
        CHANNELS 3 Zrotation Xrotation Yrotation
        JOINT Neck
        {
          OFFSET 0 24.4111 1.16384
          CHANNELS 3 Zrotation Xrotation Yrotation
          JOINT Head
          {
            OFFSET 0 7.37523 0
            CHANNELS 3 Zrotation Xrotation Yrotation
            End Site
            {
              OFFSET 0 17.8522 -5.88741
            }
          }
        }
        JOINT RightShoulder
        {
          OFFSET -4.00356 10.2679 -0.557468
          CHANNELS 3 Zrotation Xrotation Yrotation
          JOINT RightArm
          {
            OFFSET 0 13.4673 0
            CHANNELS 3 Zrotation Xrotation Yrotation
            JOINT RightArmRoll
            {
              OFFSET 0 6.79858 0
              CHANNELS 3 Zrotation Xrotation Yrotation
              JOINT RightForeArm
              {
                OFFSET 0 19.8018 0
                CHANNELS 3 Zrotation Xrotation Yrotation
                JOINT RightForeArmRoll
                {
                  OFFSET 0 7.62905 0
                  CHANNELS 3 Zrotation Xrotation Yrotation
                  JOINT RightHand
                  {
                    OFFSET 0 15.3098 0
                    CHANNELS 3 Zrotation Xrotation Yrotation
                    End Site
                    {
                      OFFSET 0 0 0
                    }
                  }
                }
              }
            }
          }
        }
        JOINT LeftShoulder
        {
          OFFSET 4.00356 10.2679 -0.557468
          CHANNELS 3 Zrotation Xrotation Yrotation
          JOINT LeftArm
          {
            OFFSET 0 13.4673 0
            CHANNELS 3 Zrotation Xrotation Yrotation
            JOINT LeftArmRoll
            {
              OFFSET 0 6.79858 0
              CHANNELS 3 Zrotation Xrotation Yrotation
              JOINT LeftForeArm
              {
                OFFSET 0 19.8018 0
                CHANNELS 3 Zrotation Xrotation Yrotation
                JOINT LeftForeArmRoll
                {
                  OFFSET 0 7.62906 0
                  CHANNELS 3 Zrotation Xrotation Yrotation
                  JOINT LeftHand
                  {
                    OFFSET 0 15.3098 0
                    CHANNELS 3 Zrotation Xrotation Yrotation
                    End Site
                    {
                      OFFSET 0 0 0
                    }
                  }
                }
              }
            }
          }
        }
      }
    }
  }
  JOINT RightUpLeg
  {
    OFFSET -6.62609 -1.21505 -1.01927
    CHANNELS 3 Zrotation Xrotation Yrotation
    JOINT RightUpLegRoll
    {
      OFFSET 0 17.9517 0
      CHANNELS 3 Zrotation Xrotation Yrotation
      JOINT RightLeg
      {
        OFFSET 0 -22.2304 0
        CHANNELS 3 Zrotation Xrotation Yrotation
        JOINT RightLegRoll
        {
          OFFSET 0 22.3032 0
          CHANNELS 3 Zrotation Xrotation Yrotation
          JOINT RightFoot
          {
            OFFSET 0 18.5636 0
            CHANNELS 3 Zrotation Xrotation Yrotation
            JOINT RightToeBase
            {
              OFFSET 0 15.5183 0
              CHANNELS 3 Zrotation Xrotation Yrotation
              End Site
              {
                OFFSET 0.00657761 7.51539 -0.866263
              }
            }
          }
        }
      }
    }
  }
  JOINT LeftUpLeg
  {
    OFFSET 6.62609 -1.21505 -1.01927
    CHANNELS 3 Zrotation Xrotation Yrotation
    JOINT LeftUpLegRoll
    {
      OFFSET 0 17.9518 0
      CHANNELS 3 Zrotation Xrotation Yrotation
      JOINT LeftLeg
      {
        OFFSET 0 22.2303 0
        CHANNELS 3 Zrotation Xrotation Yrotation
        JOINT LeftLegRoll
        {
          OFFSET 0 22.5093 0
          CHANNELS 3 Zrotation Xrotation Yrotation
          JOINT LeftFoot
          {
            OFFSET 0 18.3575 0
            CHANNELS 3 Zrotation Xrotation Yrotation
            JOINT LeftToeBase
            {
              OFFSET 0 15.5183 0
              CHANNELS 3 Zrotation Xrotation Yrotation
              End Site
              {
                OFFSET -0.029478 7.51539 -0.866263
              }
            }
          }
        }
      }
    }
  }
}
MOTION
Frames: 6
Frame Time: 0.00208333
55.6733 93.859 20.2841 -0.134708 -6.00153 2.40415 0.0966923 -0.918053 -0.227311 0.188038 2.16634 -0.465388 0.193808 3.81138 -0.468878 -6.61807 -3.0262 -4.69008 5.62986 7.87031 -5.48433 61.0173 -7.05495 -4.46243 115.617 2.4211 -12.7139 5.61489e-007 -2.90997e-006 -4.77134e-006 9.08064 67.9863 -8.18986 1.27057e-007 -2.56358e-006 -3.00564 8.02959 -4.95142 0.697674 -62.6214 -1.60274 1.39255 -113.163 13.6714 16.1751 2.92779e-006 5.26256e-006 -5.9143e-006 -6.57354 74.7911 8.68836 3.86558e-006 -3.95366e-006 3.00832 -8.03023 -4.95138 -0.697653 178.583 1.50791 3.0898 180 7.01495e-015 178.718 175.675 28.4716 -179.871 -2.19198e-006 -8.29824e-006 0.484145 -21.6635 70.447 21.937 8.41434 29.2011 -3.62298 -177.064 2.21886 -1.69761 4.54188e-006 -4.6773e-006 -1.38392 -3.96 -27.6975 -0.0487662 -1.83986e-006 -6.62703e-007 -0.543121 19.1207 68.3156 -19.8446 -8.39382 28.9236 3.60631 
55.6673 94.1705 20.3074 -0.114694 -5.96584 2.4454 0.0901569 -0.937169 -0.223237 0.175961 2.12814 -0.456505 0.181611 3.77318 -0.459782 -6.64885 -3.11894 -4.72811 5.68974 7.98178 -5.52587 60.9916 -7.06665 -4.46839 115.576 2.25806 -12.8386 5.61489e-007 -2.90997e-006 -4.77134e-006 8.90892 68.2713 -8.11066 1.27057e-007 -2.56358e-006 -3.00564 8.02959 -4.95142 0.697674 -62.5801 -1.60028 1.38695 -113.034 13.5766 16.4563 2.92779e-006 5.26256e-006 -5.9143e-006 -6.35455 75.0098 8.56447 3.86558e-006 -3.95366e-006 3.00832 -8.03023 -4.95138 -0.697653 178.548 1.22332 3.04894 180 7.01497e-015 178.724 175.728 27.7566 -179.907 -2.19198e-006 -8.29824e-006 0.458025 -21.1782 70.1628 21.6103 8.34144 28.1891 -3.5859 -177.033 1.9603 -1.65461 4.54188e-006 -4.6773e-006 -1.37984 -3.93108 -26.9108 -0.013498 -1.83986e-006 -6.62702e-007 -0.50141 18.5868 67.7765 -19.3879 -8.32647 27.9816 3.57388 
55.6751 94.4781 20.3629 -0.0970031 -5.92712 2.48568 0.0838525 -0.95668 -0.218797 0.164256 2.08915 -0.446914 0.169777 3.73419 -0.449984 -6.67068 -3.21021 -4.76568 5.74118 8.09783 -5.56641 60.9773 -7.07674 -4.47382 115.521 2.0948 -12.9584 5.61489e-007 -2.90997e-006 -4.77134e-006 8.73133 68.5521 -8.0256 1.27057e-007 -2.56358e-006 -3.00564 8.02959 -4.95142 0.697674 -62.5352 -1.5992 1.38179 -112.907 13.4801 16.7312 2.92779e-006 5.26256e-006 -5.9143e-006 -6.13349 75.2239 8.43746 3.86558e-006 -3.95366e-006 3.00831 -8.03023 -4.95138 -0.697653 178.518 0.944175 3.00091 180 7.01499e-015 178.73 175.786 27.0396 -179.94 -2.19198e-006 -8.29824e-006 0.433268 -20.74 69.9 21.3174 8.27602 27.2633 -3.55356 -177.001 1.71615 -1.60826 4.54188e-006 -4.6773e-006 -1.37526 -3.90229 -26.1448 0.0184324 -1.83986e-006 -6.62701e-007 -0.462309 18.1202 67.2846 -18.9914 -8.2659 27.1198 3.54554 
55.6419 94.796 20.3869 -0.0822175 -5.88544 2.52501 0.0779167 -0.976545 -0.214025 0.153169 2.04945 -0.436702 0.158554 3.69449 -0.439574 -6.68249 -3.29928 -4.80248 5.78304 8.21772 -5.60554 60.975 -7.08488 -4.47857 115.451 1.93239 -13.0726 5.61489e-007 -2.90997e-006 -4.77134e-006 8.54797 68.8275 -7.93451 1.27057e-007 -2.56358e-006 -3.00564 8.02959 -4.95142 0.697674 -62.4862 -1.59956 1.37705 -112.786 13.383 16.9986 2.92779e-006 5.26256e-006 -5.9143e-006 -5.91132 75.4325 8.30781 3.86558e-006 -3.95366e-006 3.00831 -8.03023 -4.95138 -0.697653 178.494 0.671236 2.94498 180 7.015e-015 178.735 175.849 26.3214 -179.972 -2.19198e-006 -8.29824e-006 0.409962 -20.3532 69.6607 21.0586 8.21928 26.4466 -3.52625 -176.968 1.48878 -1.55843 4.54188e-006 -4.6773e-006 -1.37012 -3.87362 -25.4047 0.0465363 -1.83986e-006 -6.627e-007 -0.426241 17.7226 66.8483 -18.655 -8.21328 26.36 3.52158 
55.6358 95.1187 20.4338 -0.0709199 -5.84085 2.56342 0.0724876 -0.996722 -0.208955 0.142944 2.00912 -0.425952 0.148189 3.65416 -0.428642 -6.68324 -3.38536 -4.83817 5.8142 8.34072 -5.64285 60.9855 -7.09075 -4.48247 115.364 1.77187 -13.1803 5.61489e-007 -2.90997e-006 -4.77134e-006 8.35894 69.0965 -7.83721 1.27057e-007 -2.56358e-006 -3.00564 8.02959 -4.95142 0.697674 -62.4325 -1.60144 1.37273 -112.671 13.2866 17.2573 2.92779e-006 5.26256e-006 -5.9143e-006 -5.68912 75.6346 8.17614 3.86558e-006 -3.95366e-006 3.00831 -8.03023 -4.95138 -0.697653 178.476 0.405269 2.88041 180 7.01501e-015 178.74 175.918 25.6028 179.999 -2.19198e-006 -8.29823e-006 0.388195 -20.0219 69.4472 20.8344 8.17237 25.7621 -3.50423 -176.935 1.28057 -1.50501 4.54188e-006 -4.6773e-006 -1.36434 -3.84506 -24.696 0.0703317 -1.83986e-006 -6.62699e-007 -0.393633 17.3958 66.4761 -18.3787 -8.16975 25.7237 3.50223 
55.62 95.4488 20.4804 -0.0636922 -5.79342 2.60093 0.0677029 -1.01717 -0.203625 0.133829 1.96825 -0.414751 0.138929 3.6133 -0.417277 -6.67187 -3.46773 -4.87244 5.83352 8.46609 -5.67794 61.0096 -7.09404 -4.48535 115.26 1.61428 -13.2809 5.61489e-007 -2.90997e-006 -4.77134e-006 8.16439 69.3579 -7.73357 1.27057e-007 -2.56358e-006 -3.00564 8.02959 -4.95142 0.697674 -62.3735 -1.6049 1.36881 -112.563 13.1922 17.5061 2.92779e-006 5.26256e-006 -5.9143e-006 -5.468 75.8293 8.04307 3.86558e-006 -3.95366e-006 3.0083 -8.03023 -4.95138 -0.697653 178.467 0.147041 2.80647 180 7.01503e-015 178.745 175.992 24.8848 179.973 -2.19198e-006 -8.29823e-006 0.368056 -19.7505 69.2617 20.6454 8.13649 25.2327 -3.48773 -176.9 1.0939 -1.44786 4.54188e-006 -4.6773e-006 -1.35783 -3.81658 -24.024 0.0893398 -1.83986e-006 -6.62697e-007 -0.364909 17.1423 66.1765 -18.1631 -8.13649 25.2327 3.48774 
